<?xml version="1.0" standalone="no"?>
<!DOCTYPE svg PUBLIC "-//W3C//DTD SVG 20010904//EN"
 "http://www.w3.org/TR/2001/REC-SVG-20010904/DTD/svg10.dtd">
<svg version="1.0" xmlns="http://www.w3.org/2000/svg"
 width="300.000000pt" height="300.000000pt" viewBox="0 0 300.000000 300.000000"
 preserveAspectRatio="xMidYMid meet">
<metadata>
Created by potrace 1.10, written by Peter Selinger 2001-2011
</metadata>
<g transform="translate(0.000000,300.000000) scale(0.100000,-0.100000)"
fill="#000000" stroke="none">
<path d="M1357 2981 c-9 -10 -42 -24 -73 -31 -30 -7 -57 -17 -60 -22 -3 -4
-13 -8 -22 -8 -31 0 -213 -102 -264 -149 -49 -44 -90 -112 -104 -174 -20 -91
-25 -211 -10 -233 11 -14 14 0 19 92 3 64 13 130 23 159 25 72 125 168 228
219 77 38 264 106 291 106 7 0 16 7 19 15 3 9 20 22 38 30 l33 14 -50 0 c-35
0 -55 -6 -68 -18z"/>
<path d="M1556 2985 c14 -11 52 -15 154 -15 308 -2 453 -66 535 -238 18 -39
34 -61 42 -58 7 3 76 44 153 90 76 47 151 88 165 92 104 26 225 -107 225 -248
0 -82 -26 -108 -262 -262 -113 -74 -165 -113 -161 -123 5 -12 8 -12 22 0 9 8
32 23 51 32 19 10 37 21 40 25 3 5 52 36 110 70 58 34 107 65 110 69 3 4 19
17 37 29 17 12 43 46 57 75 85 179 -82 420 -253 363 -14 -5 -81 -42 -149 -83
-120 -71 -152 -81 -152 -48 0 8 -4 15 -8 15 -4 0 -16 14 -26 31 -31 52 -88
104 -143 133 -29 14 -55 26 -58 26 -3 0 -21 9 -40 20 -33 18 -55 20 -252 20
-193 0 -215 -2 -197 -15z"/>
<path d="M1450 2965 c-25 -14 -24 -14 10 -8 19 3 44 10 55 14 17 6 15 8 -10 8
-16 0 -41 -6 -55 -14z"/>
<path d="M1423 2910 c-18 -6 -35 -15 -38 -20 -3 -6 -16 -10 -28 -10 -13 0 -31
-6 -42 -13 -11 -8 -41 -20 -67 -27 -26 -8 -45 -17 -42 -21 2 -4 -8 -10 -23
-14 -14 -3 -38 -15 -51 -26 -14 -10 -29 -19 -34 -19 -17 0 -58 -37 -50 -45 4
-5 -1 -5 -11 -2 -10 4 -16 3 -13 -2 8 -12 -18 -32 -35 -28 -8 2 -11 2 -6 0 14
-8 -4 -22 -20 -16 -13 5 -13 3 3 -14 20 -21 39 -21 28 0 -4 7 -4 9 1 5 4 -4
43 18 86 48 44 31 85 57 93 58 7 1 25 10 40 19 26 17 52 15 40 -4 -3 -5 2 -24
11 -42 21 -41 30 -139 17 -194 l-10 -43 31 0 c28 0 29 1 13 13 -16 12 -17 17
-6 37 19 35 4 166 -22 192 -13 13 -17 23 -10 30 5 5 68 21 139 35 140 28 190
26 224 -8 24 -24 25 -75 2 -88 -16 -9 -15 -11 8 -20 29 -11 39 -29 39 -71 0
-49 -39 -66 -196 -89 -76 -12 -143 -21 -149 -22 -5 0 -1 -4 10 -8 10 -4 36 -3
57 2 28 7 42 6 53 -3 13 -11 14 -10 9 4 -5 13 0 16 24 16 17 0 32 -6 35 -12 3
-10 8 -10 18 1 8 8 9 11 2 7 -6 -3 -14 -2 -17 3 -4 5 32 12 81 17 49 4 82 9
76 11 -9 3 -8 12 5 31 9 15 19 29 22 32 8 8 7 50 -2 50 -4 0 -8 6 -8 14 0 8
-4 16 -9 18 -5 2 -11 24 -13 49 -2 27 -13 57 -26 74 -12 15 -22 24 -22 20 0
-5 -8 -1 -19 9 -19 17 -118 29 -127 15 -2 -4 -15 -6 -29 -3 -13 2 -27 0 -30
-6 -3 -5 -18 -10 -33 -10 -20 0 -23 3 -12 9 8 6 17 8 21 5 4 -2 10 0 14 6 3 5
20 10 36 10 17 0 28 4 25 8 -3 5 54 8 127 6 73 -1 132 -3 132 -3 0 -1 23 -4
50 -7 60 -5 98 -10 143 -18 22 -4 31 -3 27 4 -3 5 -2 10 4 10 5 0 12 -6 14
-12 4 -10 6 -10 6 0 1 16 -41 33 -109 43 -90 13 -422 19 -457 9z"/>
<path d="M2067 2844 c2 -7 15 -15 29 -18 13 -4 23 -10 22 -14 -1 -4 5 -21 14
-37 9 -17 19 -52 23 -78 4 -26 10 -47 14 -47 4 0 7 -8 7 -17 0 -10 3 -37 7
-60 6 -43 0 -51 -38 -43 -22 4 11 -18 44 -28 30 -11 32 -10 26 6 -4 9 -11 44
-16 77 -5 33 -13 85 -19 114 -5 30 -8 56 -6 58 5 5 43 -156 54 -221 6 -42 12
-52 41 -68 44 -25 50 -16 15 19 -30 31 -32 33 -39 88 -2 18 -9 42 -14 52 -6
10 -20 51 -31 91 -25 87 -61 133 -107 136 -21 1 -29 -2 -26 -10z"/>
<path d="M2480 2744 c-63 -41 -114 -79 -112 -85 1 -6 -2 -8 -7 -5 -5 4 -21 1
-36 -6 -22 -10 -25 -16 -20 -37 9 -35 8 -35 49 -10 43 25 48 36 6 14 -34 -17
-40 -18 -40 -6 0 5 16 16 35 25 20 10 33 21 30 26 -4 6 2 7 11 3 11 -4 15 -2
11 4 -4 6 1 10 11 9 9 0 16 5 14 12 -1 8 2 11 8 7 14 -8 42 14 34 27 -3 5 0 9
7 7 26 -3 40 1 34 10 -3 6 3 9 13 8 17 -1 122 59 122 70 0 5 -15 -3 -53 -30
-37 -25 -46 -16 -11 12 53 42 7 18 -106 -55z"/>
<path d="M468 2789 c-47 -27 14 -119 78 -119 54 0 51 48 -8 103 -32 29 -43 32
-70 16z m52 -51 c0 -13 5 -18 14 -15 13 5 36 -10 36 -24 0 -4 -12 -6 -27 -5
-16 2 -28 9 -28 16 0 7 -9 18 -20 24 -11 6 -22 12 -24 13 -2 2 2 9 9 18 16 19
40 3 40 -27z"/>
<path d="M1463 2757 c-57 -10 -63 -13 -63 -35 0 -23 2 -24 47 -17 71 10 118
28 118 45 0 19 -22 20 -102 7z"/>
<path d="M1532 2659 c-13 -5 -46 -10 -73 -11 -47 -2 -50 -4 -47 -28 3 -24 5
-25 63 -22 72 4 110 20 110 47 0 23 -20 28 -53 14z"/>
<path d="M2565 2598 c-54 -34 -130 -78 -182 -105 -18 -9 -33 -21 -33 -26 0 -5
15 0 33 11 17 11 75 45 127 77 87 52 121 75 110 75 -3 0 -27 -15 -55 -32z"/>
<path d="M871 2529 c-2 -84 9 -149 26 -149 9 0 12 7 8 23 -3 12 -12 58 -19
102 l-14 80 -1 -56z"/>
<path d="M633 2558 c-20 -26 -22 -48 -4 -69 20 -25 55 -20 72 13 9 16 6 24
-12 44 -25 27 -42 30 -56 12z m42 -25 c10 -14 10 -20 -1 -31 -12 -11 -16 -11
-30 2 -12 13 -13 18 -2 30 17 19 18 19 33 -1z"/>
<path d="M245 2536 c-31 -46 25 -97 66 -60 24 21 25 53 2 70 -27 20 -51 17
-68 -10z m61 -34 c-9 -2 -16 -7 -16 -11 0 -4 -7 -8 -15 -8 -18 0 -20 28 -3 45
9 9 16 8 31 -6 17 -15 17 -17 3 -20z"/>
<path d="M2730 2525 c-25 -19 -48 -35 -52 -35 -5 0 -30 -16 -58 -36 -28 -20
-55 -32 -61 -28 -7 4 -9 3 -6 -3 8 -13 -18 -37 -31 -30 -4 3 -28 -10 -51 -29
-24 -19 -48 -34 -52 -34 -14 0 -11 18 4 24 6 3 1 3 -13 0 -25 -5 -25 -5 5 21
23 21 25 24 7 15 -52 -26 -44 3 13 46 11 8 0 5 -23 -6 -36 -18 -43 -25 -39
-43 3 -12 9 -43 12 -69 4 -27 9 -48 10 -48 2 0 32 20 67 44 35 24 108 72 163
107 131 82 162 106 162 124 0 21 -5 19 -57 -20z"/>
<path d="M1645 2480 c-53 -5 -33 -7 85 -8 169 -3 329 -20 428 -48 55 -15 73
-27 139 -91 42 -41 77 -72 79 -71 9 9 -34 73 -68 103 -101 86 -400 138 -663
115z"/>
<path d="M2203 2461 c1 -13 7 -17 22 -14 13 3 16 2 8 -4 -9 -6 5 -17 45 -36
31 -15 49 -21 39 -13 -10 8 -19 18 -19 23 -2 12 -41 41 -71 52 -22 9 -25 7
-24 -8z"/>
<path d="M1075 2460 c-60 -25 -120 -38 -137 -29 -15 8 -18 6 -18 -17 0 -21 3
-25 18 -18 9 4 60 22 112 41 52 18 84 32 70 32 -14 0 -34 -4 -45 -9z"/>
<path d="M894 2361 c-50 -23 -120 -84 -140 -122 -15 -31 -18 -77 -6 -97 6 -9
12 0 20 25 13 44 58 94 119 133 23 15 39 30 35 34 -4 4 4 16 18 26 33 25 8 26
-46 1z"/>
<path d="M1455 2309 c-13 -6 -4 -7 30 -3 28 4 52 8 54 10 9 8 -65 2 -84 -7z"/>
<path d="M2870 2313 c-8 -3 -22 -7 -30 -10 -8 -4 -17 -6 -20 -6 -3 1 -13 -10
-23 -23 -23 -31 1 -34 28 -4 20 22 55 26 86 10 10 -6 19 -7 19 -3 -1 14 -45
40 -60 36z"/>
<path d="M366 2299 c2 -4 -4 -14 -14 -21 -10 -7 -22 -20 -27 -28 -4 -8 5 -3
22 13 35 32 69 35 99 6 13 -12 24 -16 28 -11 11 18 -45 53 -80 50 -18 -1 -31
-5 -28 -9z"/>
<path d="M2106 2281 c117 -30 143 -40 164 -66 8 -9 16 -12 19 -6 4 5 6 -10 6
-35 0 -24 -1 -44 -3 -44 -1 0 -7 11 -12 25 -5 14 -14 25 -21 25 -12 0 21 -58
58 -103 13 -16 23 -33 23 -39 0 -6 2 -9 5 -6 7 7 -15 68 -25 68 -4 0 -10 12
-13 27 -10 52 27 101 40 53 3 -11 9 -20 13 -20 13 0 23 41 13 50 -12 11 -186
67 -266 85 -117 26 -118 15 -1 -14z"/>
<path d="M1832 2283 c-38 -18 -105 -90 -97 -103 6 -10 65 14 65 26 0 3 -6 2
-12 -1 -7 -4 9 14 36 40 27 25 47 47 45 50 -3 2 -19 -3 -37 -12z"/>
<path d="M1853 2237 c-42 -16 -56 -32 -20 -23 35 8 125 -16 157 -42 23 -19 23
-19 -67 -26 -49 -3 -132 -13 -184 -22 -52 -8 -120 -16 -152 -17 -32 -2 -61 -8
-65 -13 -7 -11 -299 -40 -308 -31 -3 3 16 18 43 34 42 25 56 28 121 25 40 -1
72 2 72 7 0 13 -47 45 -94 65 -54 22 -80 20 -30 -3 59 -27 64 -41 14 -41 -54
0 -105 -22 -142 -62 -25 -28 -41 -35 -97 -43 l-66 -10 -3 -37 c-3 -29 1 -38
17 -43 12 -3 21 -13 21 -21 0 -8 7 -14 15 -14 22 0 18 22 -10 52 -14 15 -25
29 -25 31 0 3 19 9 43 15 23 6 53 14 67 17 14 4 92 9 175 11 96 3 152 8 156
16 12 19 39 0 39 -27 0 -14 -4 -25 -9 -25 -5 0 -15 -16 -22 -34 -7 -19 -16
-33 -21 -30 -12 7 -10 -28 3 -65 16 -45 -2 -102 -42 -135 -17 -14 -25 -26 -19
-26 7 0 27 15 46 34 38 38 43 35 15 -10 -28 -46 -101 -77 -183 -78 -78 -1
-112 17 -142 79 -23 47 -34 172 -17 203 7 13 8 22 2 22 -6 0 -18 -16 -27 -36
-34 -72 19 -234 89 -271 78 -42 237 -3 289 70 20 27 23 45 24 122 1 130 12
155 66 155 32 0 82 -58 93 -110 19 -87 74 -151 148 -171 23 -6 75 -9 115 -7
60 4 81 10 114 34 63 44 83 92 83 195 0 65 5 92 18 113 11 16 17 40 15 59 l-3
32 -67 3 c-50 2 -68 7 -68 17 0 13 -116 76 -136 74 -5 0 -23 -6 -41 -12z m292
-95 c-31 -6 -40 -19 -26 -36 7 -9 10 -24 6 -36 l-7 -22 -22 21 c-15 14 -36 21
-67 22 -24 0 -38 3 -31 6 25 10 -1 23 -46 22 -58 -1 -201 -27 -155 -28 53 -2
52 -29 -2 -49 l-30 -10 29 -1 c18 -1 41 -12 59 -28 26 -26 35 -28 103 -27 41
1 74 -1 74 -3 0 -3 -9 -22 -21 -42 -27 -49 -80 -85 -111 -75 -13 4 -36 8 -51
9 -16 2 -42 15 -58 31 -33 31 -36 27 -14 -16 33 -64 135 -82 204 -37 56 37 75
85 68 169 -3 38 -2 68 3 68 5 0 21 -21 36 -47 33 -55 38 -148 12 -198 -37 -70
-89 -95 -198 -95 -133 1 -203 68 -212 205 -2 30 -10 46 -31 64 -34 28 -34 64
1 69 12 2 19 8 16 14 -4 6 2 5 15 -1 16 -9 21 -9 19 0 -4 16 39 25 182 39 63
7 118 15 122 19 4 3 40 4 80 2 40 -2 64 -6 53 -9z m-525 -90 c0 -19 -4 -22
-27 -16 -53 13 -57 26 -15 46 30 16 42 7 42 -30z m366 14 c15 -12 17 -18 8
-33 -17 -28 -84 -29 -117 -3 -44 35 -38 40 69 48 11 1 29 -4 40 -12z"/>
<path d="M1711 2022 c-44 -83 46 -243 136 -242 10 0 -1 9 -24 19 -23 11 -49
31 -58 45 -24 37 -54 163 -41 176 5 5 7 12 4 16 -4 3 -11 -3 -17 -14z"/>
<path d="M2787 2232 c-4 -6 -15 -8 -25 -5 -10 4 -7 -2 8 -15 20 -16 26 -18 28
-6 5 22 -3 41 -11 26z"/>
<path d="M801 2196 c-12 -18 -21 -49 -21 -67 0 -35 45 -124 74 -148 13 -11 17
-10 25 11 5 13 31 48 57 78 l49 55 -40 -29 c-22 -17 -44 -36 -48 -43 -9 -15
-48 -38 -45 -26 1 4 -9 26 -24 48 -28 43 -32 93 -10 133 20 35 6 26 -17 -12z"/>
<path d="M2980 2215 c-7 -8 -16 -13 -20 -10 -4 2 -12 -14 -19 -36 -10 -32 -20
-44 -47 -55 -36 -15 -67 -8 -77 18 -3 7 -6 1 -6 -14 -2 -52 -68 -90 -89 -52
-7 13 -10 10 -15 -15 -9 -42 -52 -54 -78 -22 l-18 22 5 -33 c3 -18 6 -39 6
-45 2 -18 15 -16 22 2 8 21 56 19 72 -2 12 -17 13 -16 8 4 -4 14 1 28 15 42
25 25 54 27 75 5 15 -14 16 -13 16 10 0 29 42 66 74 66 12 0 36 -10 52 -22 28
-22 30 -26 22 -68 -13 -75 -89 -119 -120 -70 -12 18 -13 17 -23 -18 -9 -32
-15 -37 -45 -40 -24 -3 -38 2 -47 14 -12 17 -13 17 -13 -3 0 -11 -9 -28 -21
-39 -19 -18 -22 -18 -50 -2 -28 17 -29 17 -19 -2 13 -24 56 -26 84 -5 11 8 32
15 47 15 14 0 38 9 53 21 14 11 44 22 67 24 23 2 56 14 75 27 31 21 34 27 34
76 0 50 -16 84 -37 82 -4 -1 -9 6 -11 15 -5 21 26 67 38 60 6 -4 10 9 10 29 0
40 -2 42 -20 21z"/>
<path d="M297 2198 c-2 -7 5 -28 16 -47 17 -28 18 -37 8 -53 -15 -24 -9 -34 9
-13 15 18 43 19 73 4 28 -15 37 -28 37 -58 0 -23 1 -23 18 -8 23 21 37 21 72
1 20 -12 26 -22 22 -38 -4 -17 -2 -19 9 -8 19 18 50 15 73 -7 21 -20 21 -20
22 18 2 38 2 38 -26 28 -35 -13 -60 4 -60 41 0 24 -1 24 -19 8 -28 -26 -73 -9
-86 31 -9 26 -12 28 -24 16 -30 -32 -111 18 -111 69 0 29 -24 40 -33 16z"/>
<path d="M2382 2158 c-8 -8 -10 -41 -5 -112 3 -62 1 -128 -6 -173 -11 -62 -10
-75 3 -96 19 -28 21 -67 11 -207 -5 -71 -13 -115 -25 -136 l-18 -32 41 -18
c77 -35 150 -97 182 -155 26 -46 30 -64 29 -124 0 -81 -16 -119 -78 -184 l-41
-43 45 6 c25 3 142 13 260 22 118 9 217 18 219 20 18 16 -33 14 -347 -14 -46
-4 -85 -4 -88 0 -3 4 10 32 27 63 27 48 32 67 33 128 1 58 -4 81 -24 122 -39
76 -44 85 -53 85 -5 0 -27 16 -50 35 -22 19 -45 35 -50 35 -5 0 -22 9 -37 20
-26 19 -28 23 -18 58 14 52 22 57 47 26 l21 -27 0 27 c0 18 -7 29 -22 35 l-23
8 25 8 c14 4 33 17 42 29 l18 21 0 -22 c0 -12 9 -28 20 -36 21 -14 21 -15 -3
-21 -13 -3 -29 -17 -35 -31 -15 -33 -1 -32 37 4 30 28 31 31 18 62 -7 18 -20
37 -29 42 -16 11 -17 10 -87 -40 -23 -17 -24 -17 -17 4 12 39 8 196 -7 236
-10 29 -12 51 -5 85 6 33 9 302 3 302 -1 0 -6 -5 -13 -12z"/>
<path d="M2240 2123 c0 -5 7 -18 15 -29 8 -10 15 -27 15 -36 0 -10 7 -18 16
-18 8 0 22 -16 30 -36 8 -20 18 -33 21 -30 9 8 -38 106 -48 100 -4 -2 -10 4
-14 15 -6 21 -35 49 -35 34z"/>
<path d="M2230 2063 c0 -18 36 -83 47 -83 6 0 17 -16 24 -35 15 -41 31 -48 19
-7 -13 46 -33 82 -41 76 -4 -2 -15 9 -24 26 -15 28 -25 38 -25 23z"/>
<path d="M288 2034 c-14 -13 -8 -48 12 -82 19 -32 57 -48 103 -45 10 0 31 -11
45 -24 21 -19 34 -24 59 -20 23 4 36 0 49 -14 21 -23 43 -24 70 -4 22 17 12
20 -17 5 -25 -14 -55 2 -63 35 -6 25 -6 25 -26 5 -32 -32 -80 -6 -80 43 l0 31
-20 -22 c-44 -46 -109 -15 -119 57 -3 24 -9 39 -13 35z"/>
<path d="M918 2023 c-9 -10 -18 -36 -22 -58 -4 -30 -3 -35 4 -17 16 38 21 25
16 -40 -5 -48 -4 -56 4 -34 5 16 14 32 20 36 6 4 13 24 16 46 5 35 4 37 -9 21
-13 -16 -15 -16 -21 -2 -3 9 -1 26 5 37 14 26 6 33 -13 11z"/>
<path d="M2210 2003 c0 -15 31 -74 47 -88 6 -5 18 -26 26 -45 14 -31 15 -32
16 -10 0 24 -37 126 -38 105 -1 -5 -12 4 -26 20 -13 17 -24 25 -25 18z"/>
<path d="M1200 1954 c-53 -139 119 -277 224 -179 35 32 33 51 -3 26 -35 -25
-114 -26 -144 -2 -41 34 -57 56 -58 80 0 14 -2 35 -4 45 -2 11 1 28 6 38 7 12
6 18 -1 18 -6 0 -15 -12 -20 -26z"/>
<path d="M2190 1943 c0 -19 33 -87 47 -96 6 -4 14 -21 18 -37 4 -17 11 -28 16
-24 11 6 2 48 -17 84 -20 37 -64 87 -64 73z"/>
<path d="M975 1910 c-3 -11 -12 -20 -20 -20 -15 0 -25 -32 -24 -80 l2 -35 10
38 c6 20 14 37 19 37 11 0 10 -18 -2 -60 -10 -36 -5 -70 11 -70 5 0 9 16 9 35
0 19 5 35 10 35 6 0 10 -6 10 -12 1 -7 8 0 16 15 8 16 14 38 12 50 -4 21 -5
21 -18 -5 -22 -46 -33 -33 -25 32 7 60 2 78 -10 40z"/>
<path d="M867 1855 c3 -33 9 -64 14 -69 12 -14 10 19 -6 79 l-14 50 6 -60z"/>
<path d="M2170 1867 c0 -9 5 -28 12 -42 8 -19 8 -31 -1 -51 l-12 -27 -24 23
c-21 20 -25 21 -25 6 0 -9 7 -28 16 -41 13 -20 14 -28 4 -40 -12 -14 -15 -14
-30 0 -31 28 -44 7 -14 -26 10 -11 13 -25 9 -39 -6 -20 -8 -20 -32 -5 -33 22
-40 13 -15 -22 15 -21 18 -33 11 -46 -9 -15 -12 -16 -25 -2 -9 8 -22 15 -31
15 -13 0 -13 -3 1 -25 20 -30 14 -45 -19 -45 -13 0 -26 -4 -30 -9 -3 -5 -20
-13 -38 -17 -119 -26 -244 -78 -318 -133 -29 -23 -62 -41 -72 -41 -34 0 -187
51 -182 61 4 5 -8 7 -27 4 -18 -3 -27 -3 -21 1 10 4 9 9 -2 20 -13 13 -13 18
2 40 16 25 16 25 -12 18 -35 -9 -51 13 -28 38 20 23 11 33 -16 19 -16 -9 -23
-7 -35 11 -14 20 -14 24 1 40 17 19 14 21 -28 18 -28 -1 -57 24 -39 35 5 3 10
16 10 27 0 21 -1 21 -20 3 -19 -17 -22 -17 -37 -2 -15 14 -15 18 0 40 20 31 7
54 -16 27 -9 -11 -21 -20 -27 -20 -13 0 -13 46 1 72 15 29 1 37 -19 10 -13
-17 -20 -20 -29 -11 -9 9 -13 3 -18 -25 -4 -20 -4 -44 0 -53 6 -15 9 -12 17
15 11 42 32 31 25 -14 -6 -37 1 -74 14 -74 5 0 9 12 9 26 0 16 5 24 13 21 7
-2 12 -21 12 -45 1 -27 7 -48 19 -59 18 -17 18 -17 11 22 l-6 40 22 -22 c17
-16 22 -32 21 -57 -1 -19 2 -37 8 -41 6 -4 10 4 10 19 0 14 4 27 9 30 14 9 29
-37 24 -71 -3 -21 -1 -33 6 -33 6 0 11 9 11 21 0 12 5 19 13 16 7 -2 11 -19
10 -43 -1 -21 0 -33 3 -26 9 19 34 14 34 -7 0 -11 -4 -22 -8 -25 -18 -11 -116
46 -171 99 -32 30 -61 55 -64 55 -26 0 47 -185 78 -196 7 -3 10 -15 7 -29 -3
-19 1 -25 22 -31 30 -7 31 -11 15 -135 -11 -83 -13 -88 -40 -100 -16 -6 -44
-9 -62 -5 -143 27 -183 45 -257 116 -23 22 -47 40 -55 40 -7 0 -18 6 -24 14
-9 11 -1 14 43 20 62 7 136 36 183 72 44 33 57 58 43 84 -10 18 -12 17 -45
-19 -47 -52 -142 -94 -203 -89 -46 3 -47 3 -49 -29 -6 -70 142 -199 265 -233
57 -15 158 -16 175 -1 8 6 16 8 19 6 3 -3 3 -47 1 -98 l-5 -92 26 30 c14 17
33 45 43 63 17 30 33 37 40 16 1 -5 -21 -40 -49 -79 -69 -92 -66 -138 8 -147
39 -5 56 7 24 17 -37 12 -44 42 -20 88 66 126 63 117 45 137 -12 14 -25 17
-46 13 -23 -4 -29 -2 -29 11 0 10 -7 25 -16 33 -10 10 -14 26 -10 42 3 14 11
69 17 122 l11 96 52 -5 c66 -5 96 -24 96 -60 0 -15 6 -38 13 -52 18 -35 30
-93 17 -85 -6 3 -10 -1 -10 -10 0 -9 -4 -13 -10 -10 -5 3 -10 1 -10 -4 0 -6 6
-11 14 -11 10 0 16 -13 18 -37 4 -40 3 -43 24 125 10 79 15 37 6 -52 -4 -47
-5 -86 -2 -86 3 0 11 51 18 114 15 144 17 149 53 141 60 -13 23 23 -48 48
l-38 13 3 -73 c3 -49 1 -73 -7 -73 -11 0 -16 32 -12 82 3 35 -18 76 -29 58 -5
-9 -29 -11 -81 -8 -73 5 -146 26 -121 35 9 4 6 16 -13 49 -14 24 -23 44 -19
44 4 0 27 -9 50 -21 23 -11 87 -29 141 -40 54 -11 122 -31 152 -46 74 -35 104
-37 133 -5 62 68 147 107 381 177 48 15 85 29 83 33 -2 4 8 7 24 8 42 2 160
61 204 102 44 42 75 103 76 147 0 25 -6 18 -38 -44 -30 -61 -47 -81 -92 -113
-30 -20 -60 -38 -66 -38 -13 0 -34 43 -34 70 0 30 20 24 31 -10 6 -16 15 -30
20 -30 13 0 11 15 -8 54 -12 27 -14 41 -6 58 10 22 11 22 28 -14 23 -47 40
-39 20 9 -18 42 -20 83 -4 83 6 0 16 -13 22 -30 6 -16 15 -30 20 -30 20 0 -18
102 -50 138 -18 19 -23 21 -23 9z m-40 -328 c0 -14 -26 -11 -39 5 -6 7 -8 21
-5 31 7 17 9 16 26 -5 10 -12 18 -26 18 -31z"/>
<path d="M2924 1852 c-17 -11 -33 -47 -26 -58 14 -20 45 -24 68 -9 29 19 30
26 5 53 -19 23 -29 26 -47 14z m23 -9 c-4 -3 0 -15 10 -25 9 -10 11 -18 5 -18
-6 0 -17 -3 -26 -6 -11 -4 -16 0 -16 13 0 17 17 43 29 43 2 0 1 -3 -2 -7z"/>
<path d="M1270 1840 c-13 -8 -12 -11 5 -24 18 -13 22 -13 35 0 13 13 13 16 0
24 -19 12 -21 12 -40 0z"/>
<path d="M294 1805 c-13 -20 -14 -28 -4 -40 15 -19 31 -19 54 -2 15 11 16 18
8 34 -18 32 -40 35 -58 8z m44 -18 c3 -12 -4 -17 -22 -17 -24 0 -25 2 -14 20
15 23 31 21 36 -3z"/>
<path d="M746 1772 c-3 -4 -29 -20 -58 -35 -29 -15 -77 -49 -106 -76 -42 -39
-52 -55 -52 -81 0 -24 -4 -31 -14 -27 -8 3 -17 -1 -20 -9 -3 -8 -16 -14 -30
-14 -16 0 -27 -7 -31 -19 -4 -13 -12 -18 -21 -14 -8 3 -25 -4 -38 -16 -13 -12
-33 -23 -45 -24 -11 -1 -21 -4 -21 -8 0 -16 -53 -19 -76 -4 -57 37 -153 2
-175 -63 -30 -90 1 -193 87 -290 51 -58 70 -67 134 -64 52 2 115 46 115 80 0
12 4 24 8 28 4 4 7 20 7 35 0 18 10 35 29 51 56 45 94 73 117 88 13 8 24 18
24 23 0 4 -17 -2 -38 -15 -21 -13 -68 -41 -104 -63 l-65 -39 5 -48 c4 -44 2
-50 -31 -83 -43 -43 -86 -46 -138 -11 -66 45 -139 179 -139 255 0 86 101 132
168 76 l29 -24 136 77 c125 70 137 79 137 105 0 19 13 41 43 71 42 44 128 106
145 106 5 0 17 9 27 20 10 11 13 20 7 20 -6 0 -13 -4 -16 -8z"/>
<path d="M793 1763 c-17 -6 -16 -23 1 -23 7 0 30 -11 51 -25 29 -20 40 -23 51
-14 18 15 11 25 -36 49 -41 21 -46 22 -67 13z"/>
<path d="M731 1718 l-34 -9 29 -15 c90 -47 137 -165 86 -216 -31 -32 -49 -17
-63 54 -10 49 -20 71 -49 101 -25 25 -42 36 -53 31 -24 -9 -21 -17 14 -36 42
-24 86 -120 70 -154 -20 -44 -76 -27 -86 27 -3 13 -11 27 -19 31 -9 5 -18 24
-22 43 -7 40 -28 38 -42 -4 -8 -22 -6 -30 8 -39 20 -12 77 -91 82 -112 2 -8
-10 -16 -27 -20 -16 -4 -39 -11 -49 -15 -15 -7 -17 -5 -11 5 5 8 -9 3 -31 -10
-52 -31 -69 -49 -20 -21 21 12 40 20 43 18 4 -5 -81 -57 -92 -57 -3 0 -3 5 1
12 4 7 3 8 -5 4 -6 -4 -9 -11 -6 -16 3 -4 -15 -20 -40 -35 -40 -23 -47 -24
-60 -11 -8 8 -15 18 -15 23 -1 16 -59 78 -66 70 -10 -10 10 -43 55 -94 38 -42
38 -42 58 -23 12 10 23 17 25 15 2 -2 44 20 93 50 95 58 109 62 138 41 17 -13
17 -15 1 -24 -14 -8 -9 -13 29 -32 41 -20 49 -21 94 -11 77 19 216 108 185
118 -11 4 -10 8 1 22 18 20 33 66 19 57 -6 -3 -1 16 10 43 l21 49 -38 63 c-21
35 -40 66 -42 68 -2 3 -11 -2 -19 -11 -14 -14 -14 -20 2 -65 19 -53 15 -91
-12 -118 -25 -24 -38 -13 -45 37 -8 54 -28 95 -63 127 -31 29 -32 38 -8 44 11
3 12 5 2 5 -8 0 -30 -4 -49 -10z m215 -215 c-10 -42 -17 -51 -56 -70 -53 -28
-90 -30 -90 -6 0 24 30 53 54 53 29 0 65 27 77 57 16 42 28 16 15 -34z m-160
-78 c9 -23 -12 -42 -63 -59 -36 -13 -49 -13 -61 -4 -12 10 -8 17 24 45 42 35
90 44 100 18z m155 2 c-6 -8 -8 -16 -5 -20 8 -7 -85 -54 -155 -78 -65 -23 -97
-24 -105 -4 -3 8 -1 15 5 15 11 0 179 63 224 85 39 18 50 18 36 2z"/>
<path d="M2675 1674 c-19 -16 -23 -23 -12 -20 10 3 23 6 27 6 5 0 14 9 20 20
15 27 1 25 -35 -6z"/>
<path d="M1832 1673 c4 -24 -71 -61 -150 -73 -48 -8 -78 -7 -139 6 -43 9 -85
20 -95 25 -24 13 -35 11 -42 -7 -3 -9 -2 -12 5 -9 5 4 25 -5 44 -20 82 -62
185 -82 260 -51 51 22 43 26 -17 10 -31 -8 -70 -12 -93 -8 -49 7 -135 43 -135
56 0 5 9 4 19 -2 59 -31 218 -27 285 7 l31 16 -25 -28 c-21 -24 -21 -26 -4
-14 12 8 34 29 49 47 22 26 30 30 41 21 18 -15 20 11 2 29 -18 18 -39 15 -36
-5z"/>
<path d="M2719 1638 c0 -38 -2 -41 -11 -20 -6 12 -19 22 -30 22 -27 0 -22 -13
12 -33 l29 -18 16 30 c19 38 19 61 0 61 -11 0 -15 -12 -16 -42z"/>
<path d="M318 1563 c-28 -34 -29 -42 -3 -59 20 -13 28 -14 40 -4 18 15 20 51
3 68 -16 16 -22 15 -40 -5z m35 -17 c7 -18 -1 -26 -25 -26 -16 0 -17 3 -8 20
13 23 26 26 33 6z"/>
<path d="M2269 1530 c-42 -26 -89 -52 -105 -58 -22 -8 -24 -11 -9 -11 39 -2
156 52 177 81 11 16 19 30 17 32 -2 2 -38 -18 -80 -44z"/>
<path d="M1555 1509 c19 -7 132 -13 124 -5 -2 2 -35 6 -74 8 -40 3 -61 2 -50
-3z"/>
<path d="M436 1450 c-55 -32 -101 -65 -102 -74 -2 -13 2 -14 17 -5 11 5 17 13
15 17 -5 9 123 78 137 74 5 -1 5 3 1 9 -5 9 -2 10 12 5 10 -4 15 -4 11 0 -4 4
1 13 11 20 39 30 -9 8 -102 -46z"/>
<path d="M2300 1465 c-6 -7 -33 -17 -58 -21 -47 -6 -118 -26 -157 -43 -50 -23
-118 -43 -209 -61 -123 -25 -146 -25 -147 -2 0 14 -2 14 -7 2 -4 -8 -20 -35
-35 -59 -58 -89 -69 -128 -65 -228 3 -67 1 -93 -8 -93 -29 0 -27 159 3 240 9
25 28 63 43 85 45 67 45 71 4 37 -21 -17 -49 -40 -62 -50 -28 -21 -36 -77 -36
-270 0 -73 -4 -125 -7 -115 -7 16 -8 15 -8 -4 -1 -12 4 -25 9 -28 22 -14 10
-35 -20 -35 -16 0 -30 -4 -30 -9 0 -5 -20 -9 -45 -9 l-45 -1 0 59 0 60 48 -2
47 -1 -42 -4 c-42 -4 -58 -23 -33 -38 8 -5 8 -11 1 -19 -6 -7 -8 -16 -4 -19
15 -15 23 -5 23 28 0 19 5 35 10 35 6 0 8 -10 4 -24 -3 -14 -1 -27 7 -31 18
-12 59 -14 59 -4 0 9 -14 13 -37 10 -7 -1 -13 7 -13 18 0 14 5 19 15 15 8 -4
15 -1 15 5 0 6 6 11 13 11 8 0 14 7 14 15 0 12 -15 15 -73 15 -61 0 -73 3 -77
18 -3 9 -5 -31 -6 -90 0 -59 3 -109 8 -112 4 -3 6 6 3 19 l-4 25 89 -1 89 -1
13 -60 c14 -67 7 -82 -37 -75 -18 4 -20 2 -11 -9 6 -8 29 -17 51 -21 22 -3 42
-12 45 -19 3 -9 23 -14 57 -15 l51 0 37 -75 c20 -41 32 -74 27 -74 -5 0 -5
-10 1 -24 5 -13 12 -61 16 -107 3 -46 11 -86 15 -87 5 -2 7 -7 4 -12 -5 -8 60
-30 195 -66 82 -22 306 -25 363 -6 20 8 37 16 37 18 0 15 -30 71 -44 83 -15
13 -16 12 -6 -15 6 -15 16 -34 22 -41 6 -8 8 -16 5 -20 -13 -12 -97 -22 -199
-23 -121 0 -138 8 -138 65 0 40 35 86 84 109 38 18 120 21 163 6 l28 -10 -24
20 c-42 36 -225 22 -261 -20 -22 -25 -51 -11 -30 15 8 10 23 21 35 25 l20 9
-21 0 c-11 1 -29 -6 -40 -14 -25 -19 -44 -19 -44 -1 0 22 18 29 90 36 l65 7
-70 2 c-51 1 -77 -4 -94 -15 -30 -22 -54 -3 -28 23 13 13 37 17 99 19 151 3
158 20 10 22 -93 1 -131 -1 -126 -9 4 -7 -1 -10 -12 -7 -10 2 -20 11 -22 20
-5 24 53 47 93 37 17 -4 66 -9 110 -12 l80 -6 -37 35 c-31 28 -45 34 -83 34
-32 0 -45 4 -45 14 0 8 -8 24 -18 36 -16 19 -29 22 -105 24 -48 1 -90 6 -94
10 -5 4 57 6 136 4 109 -2 145 0 148 10 4 9 -37 12 -182 12 -152 0 -189 3
-201 15 -9 8 -22 15 -30 15 -12 0 -12 -4 -2 -20 7 -10 10 -22 6 -25 -7 -8 -59
39 -62 57 -2 7 -6 20 -9 28 -7 17 -27 172 -27 212 0 23 4 27 28 25 l27 -2 6
105 5 105 4 -95 3 -95 7 115 c7 124 23 173 63 190 28 12 204 50 233 50 18 0
23 -7 26 -37 3 -21 4 -40 2 -42 -5 -5 -47 -4 -74 3 -24 6 -24 6 -2 -4 18 -8
21 -13 13 -28 -7 -14 -5 -21 11 -31 11 -7 17 -19 14 -26 -3 -8 0 -14 7 -12 7
1 11 -4 9 -11 -1 -8 2 -11 7 -8 5 4 11 0 13 -6 7 -19 64 3 61 23 -2 12 5 14
32 11 27 -3 35 -1 35 12 0 14 -3 14 -20 4 -17 -11 -22 -10 -29 1 -6 9 -11 10
-15 2 -4 -6 -12 -11 -17 -11 -6 0 -8 4 -4 9 3 5 1 12 -5 16 -18 11 -10 25 15
25 14 0 28 -7 31 -15 4 -8 10 -15 16 -15 5 0 6 5 3 10 -4 6 7 10 25 10 21 0
29 -4 24 -12 -5 -8 -2 -9 9 -5 21 8 34 -12 16 -24 -10 -6 -6 -9 14 -9 17 0 27
-5 27 -15 0 -8 -8 -15 -17 -15 -13 0 -11 -4 7 -13 34 -17 87 -107 112 -193
l21 -70 33 15 c25 12 33 23 34 41 0 68 -57 176 -110 209 -23 13 -27 20 -17 24
22 8 73 -23 102 -63 30 -41 59 -132 53 -165 -4 -19 -1 -23 15 -22 33 2 47 36
37 90 -16 81 -60 146 -120 177 -50 25 -85 25 -110 0 -20 -20 -20 -20 -20 4 0
33 37 60 118 87 84 27 88 30 69 41 -22 12 -114 -26 -156 -65 -33 -32 -33 -32
-29 -7 3 14 9 33 13 43 4 10 3 17 -4 17 -10 0 -16 -11 -37 -69 -3 -11 -12 -7
-33 13 -25 24 -34 27 -63 20 -49 -11 -82 -11 -90 1 -4 5 -8 31 -8 57 l0 46 83
30 c129 47 188 62 213 56 22 -6 44 17 44 45 0 16 -26 13 -40 -4z m-317 -269
c9 -1 23 -8 30 -16 10 -10 9 -11 -3 -5 -10 6 -9 2 3 -13 20 -21 16 -42 -7 -42
-12 0 -47 40 -71 79 -6 11 -4 13 11 6 10 -4 27 -8 37 -9z m-5 -629 c24 -16 12
-36 -38 -63 -35 -19 -50 -33 -50 -48 0 -12 -4 -16 -8 -11 -4 6 -13 10 -20 10
-14 0 -65 112 -58 124 6 8 158 -2 174 -12z m52 -67 c0 -5 -14 -10 -31 -10 -17
0 -28 4 -24 10 3 6 17 10 31 10 13 0 24 -4 24 -10z m-98 -94 c7 4 8 2 4 -4 -4
-6 -14 -8 -24 -5 -15 6 -16 5 -2 -12 21 -26 73 -72 85 -75 6 -1 27 -11 48 -21
33 -17 36 -23 31 -47 -10 -39 -14 -40 -14 -4 0 22 -7 35 -21 43 -21 11 -21 10
-5 -12 15 -23 23 -109 9 -109 -4 0 -41 9 -84 21 l-77 21 -6 46 c-3 26 -5 54
-5 62 0 8 -1 35 -2 59 -2 48 15 68 38 45 8 -8 19 -11 25 -8z"/>
<path d="M492 1396 c-39 -24 -75 -46 -80 -51 -9 -10 149 74 163 86 21 20 -13
5 -83 -35z"/>
<path d="M112 1384 c-32 -22 -27 -46 21 -96 23 -25 47 -51 52 -59 17 -21 55
-104 55 -117 0 -6 12 -19 26 -28 24 -16 27 -16 51 3 37 27 42 46 10 38 -20 -5
-30 0 -54 32 -17 21 -36 49 -43 63 -7 14 -27 43 -45 65 -49 61 -59 84 -44 101
15 19 -1 18 -29 -2z"/>
<path d="M1010 1354 c0 -30 23 -73 43 -80 21 -7 21 -17 2 -91 -8 -31 -12 -65
-9 -75 11 -34 19 -18 17 34 -2 38 0 46 6 28 6 -21 8 -17 15 28 6 47 9 52 22
41 14 -12 14 -9 0 25 -9 21 -16 40 -16 42 0 2 -6 4 -12 4 -7 0 -25 14 -40 32
-24 29 -27 30 -28 12z"/>
<path d="M657 1248 c-10 -38 2 -86 36 -141 16 -26 27 -51 23 -54 -3 -4 -6 -1
-6 5 0 7 -14 3 -35 -10 -36 -24 -43 -46 -26 -91 12 -31 41 -41 73 -26 28 12
63 75 48 84 -6 3 -10 10 -10 15 0 5 20 -3 44 -16 44 -25 58 -29 126 -39 25 -4
19 0 -20 13 -75 25 -96 38 -153 91 -58 54 -79 90 -87 151 -5 40 -6 42 -13 18z
m89 -238 c19 -1 19 -1 0 -15 -11 -8 -16 -21 -13 -30 7 -17 -8 -21 -18 -4 -5 7
-14 4 -28 -8 -20 -18 -20 -18 -14 7 4 16 1 31 -10 42 -15 17 -14 18 10 18 15
0 27 6 27 13 1 7 6 5 14 -5 7 -10 22 -18 32 -18z"/>
<path d="M2876 1245 c-9 -25 -7 -47 4 -40 6 3 10 15 10 25 0 11 6 17 17 16 22
-3 30 -26 9 -26 -9 0 -16 -8 -16 -21 0 -11 -4 -17 -10 -14 -5 3 -10 1 -10 -4
0 -17 14 -13 39 10 30 28 25 63 -10 67 -17 2 -29 -3 -33 -13z"/>
<path d="M1812 1218 c-18 -24 -25 -80 -11 -89 10 -6 7 -9 -11 -10 -22 -1 -21
-2 8 -10 19 -6 32 -16 32 -26 0 -14 -2 -14 -20 2 -13 12 -20 14 -20 5 0 -10
-3 -10 -16 1 -27 22 -44 19 -51 -9 -9 -35 -5 -59 17 -102 9 -19 16 -45 14 -58
-2 -13 3 -36 11 -52 15 -30 93 -90 117 -90 7 0 1 7 -12 16 -41 28 -110 97
-110 111 0 23 15 14 73 -42 31 -30 61 -55 66 -55 11 0 -19 63 -33 69 -15 6
-96 88 -96 96 0 5 10 -1 23 -12 35 -31 46 -35 40 -15 -2 10 3 24 11 31 24 20
19 34 -19 60 -36 24 -49 49 -17 33 9 -5 23 -7 31 -4 8 2 18 -3 23 -12 5 -9 13
-14 19 -11 5 4 9 1 9 -4 0 -6 -4 -11 -10 -11 -5 0 -10 -5 -10 -12 0 -9 3 -9
12 0 7 7 27 12 45 12 23 0 33 5 33 15 0 17 -87 84 -110 85 -8 0 5 -14 30 -30
25 -16 41 -30 37 -30 -5 0 -28 13 -52 30 -46 32 -61 64 -45 104 10 28 8 33 -8
14z m-46 -144 c-3 -8 -2 -13 2 -11 4 1 25 -13 47 -30 37 -31 38 -34 22 -50
-16 -16 -19 -15 -49 15 -23 22 -34 42 -36 67 -1 24 2 34 9 30 6 -4 8 -13 5
-21z"/>
<path d="M1836 1168 c3 -7 26 -25 52 -41 39 -23 43 -24 21 -5 -68 60 -83 68
-73 46z"/>
<path d="M2054 1118 c-4 -6 -3 -8 3 -5 6 4 18 0 28 -7 17 -12 14 -15 -34 -31
-52 -17 -54 -17 -81 4 l-29 21 17 -31 c16 -29 16 -31 -4 -47 -11 -10 -33 -40
-48 -67 -28 -50 -18 -42 38 30 34 45 116 85 172 85 38 0 42 -3 67 -47 28 -53
60 -133 71 -175 5 -24 1 -31 -34 -54 -22 -15 -40 -31 -40 -37 0 -6 9 -2 20 8
27 24 25 7 -2 -24 -13 -14 -3 -8 20 14 24 22 42 33 40 26 -2 -8 -15 -26 -30
-39 -29 -25 -100 -35 -149 -22 -18 6 -26 4 -26 -6 0 -16 78 -27 153 -21 68 4
111 32 167 108 47 63 32 70 -46 22 -21 -13 -35 -28 -32 -33 3 -5 1 -11 -5 -15
-6 -4 -8 -10 -5 -14 2 -5 -6 -18 -19 -30 -15 -15 -26 -19 -31 -12 -9 16 3 31
26 31 11 0 18 4 14 9 -3 5 -1 12 5 16 6 4 7 11 4 17 -4 6 -8 27 -9 48 -3 33
-47 136 -102 237 -17 31 -43 45 -43 22 0 -6 -12 -1 -26 10 -30 24 -40 26 -50
9z"/>
<path d="M2537 1058 c-2 -24 -8 -54 -11 -68 -5 -19 -2 -16 13 10 21 36 28 100
12 100 -5 0 -11 -19 -14 -42z"/>
<path d="M2740 1086 c-13 -17 -7 -46 10 -46 13 0 13 17 0 22 -5 2 -6 9 -1 17
12 19 33 3 26 -20 -4 -11 -2 -19 5 -19 18 0 7 54 -11 58 -9 2 -22 -4 -29 -12z"/>
<path d="M978 961 c10 -6 6 -16 -17 -40 l-30 -32 -98 10 c-54 5 -162 12 -240
16 -79 3 -151 8 -160 9 -10 2 -83 7 -163 10 -80 4 -174 9 -210 12 -36 3 -61 2
-57 -2 8 -8 81 -13 658 -50 l275 -17 52 38 c29 20 52 41 52 46 0 5 -17 9 -37
9 -24 0 -33 -3 -25 -9z"/>
<path d="M115 895 c24 -8 125 -11 125 -3 0 4 -30 8 -67 7 -38 0 -63 -2 -58 -4z"/>
<path d="M1916 884 c-9 -22 -8 -23 13 -17 16 4 19 1 14 -15 -4 -15 8 -29 53
-61 31 -22 64 -41 71 -41 8 0 12 -3 10 -7 -4 -7 50 -9 86 -4 20 3 -18 42 -59
60 -25 11 -43 25 -39 31 4 6 -1 7 -11 3 -12 -4 -15 -3 -10 5 5 8 1 10 -10 5
-11 -4 -15 -2 -11 4 4 6 -1 10 -11 9 -9 0 -16 5 -14 12 1 8 -2 11 -8 7 -5 -3
-20 1 -32 9 -28 20 -34 20 -42 0z m130 -76 c66 -33 81 -44 69 -51 -27 -14
-145 46 -159 81 -8 18 -2 16 90 -30z"/>
<path d="M2935 893 c-22 -1 -77 -5 -122 -9 -76 -5 -83 -8 -83 -27 0 -19 1 -19
13 -4 12 16 84 25 215 26 23 1 42 6 42 11 0 6 -6 9 -12 8 -7 -1 -31 -3 -53 -5z"/>
<path d="M273 884 c3 -3 44 -8 92 -10 47 -2 90 -6 95 -9 5 -3 11 -1 14 4 3 4
-11 11 -32 15 -48 8 -177 8 -169 0z"/>
<path d="M500 872 c0 -6 15 -9 33 -8 17 1 61 0 97 -4 36 -4 76 -3 90 1 18 5 7
8 -36 8 -34 1 -89 4 -123 7 -40 5 -61 3 -61 -4z"/>
<path d="M2638 873 c-38 -2 -68 -7 -68 -12 0 -12 134 -4 138 8 2 6 2 10 0 9
-1 -1 -33 -3 -70 -5z"/>
<path d="M808 853 c23 -2 61 -2 85 0 23 2 4 4 -43 4 -47 0 -66 -2 -42 -4z"/>
<path d="M945 850 c3 -5 17 -10 31 -10 13 0 33 -9 44 -20 21 -21 26 -11 10 21
-8 14 -21 19 -51 19 -24 0 -38 -4 -34 -10z"/>
<path d="M1053 845 c-10 -26 2 -34 24 -15 22 18 22 18 2 23 -12 3 -22 0 -26
-8z"/>
<path d="M2450 850 c0 -7 19 -8 53 -4 70 9 72 14 4 14 -33 0 -57 -4 -57 -10z"/>
<path d="M1910 794 c1 -12 93 -74 111 -74 8 0 -6 12 -31 26 -25 14 -53 33 -62
41 -10 9 -18 12 -18 7z"/>
<path d="M1367 716 c-5 -12 -13 -16 -25 -12 -16 6 -16 5 1 -8 9 -7 17 -15 17
-18 0 -2 -39 -2 -86 0 -103 6 -109 -12 -8 -21 36 -4 73 -12 82 -19 13 -11 15
-10 9 5 -3 9 -2 17 4 17 6 0 9 -8 7 -17 -3 -16 -15 -18 -98 -15 -85 2 -93 1
-77 -12 10 -8 42 -17 70 -21 86 -11 86 -11 75 -48 -9 -30 -13 -32 -43 -29 -24
3 -36 -1 -46 -16 -8 -10 -18 -19 -24 -18 -5 0 -11 -6 -13 -14 -2 -11 10 -16
49 -18 64 -4 131 6 123 19 -3 5 -16 9 -29 9 -18 0 -23 4 -19 15 8 20 43 11 67
-17 9 -11 17 -16 17 -12 1 12 16 -16 24 -43 7 -21 5 -21 -26 -12 -18 5 -68 9
-111 9 -50 0 -76 4 -72 10 3 6 -3 10 -14 10 -32 0 -35 -19 -4 -31 17 -6 53 -8
89 -4 64 7 94 -6 94 -41 0 -12 2 -12 14 -2 10 9 11 15 2 20 -8 6 -8 8 2 9 6 1
18 2 25 3 7 1 11 13 9 29 -2 20 2 27 15 27 9 0 -8 16 -40 36 -31 19 -57 38
-57 40 0 3 7 19 16 36 12 24 13 36 4 57 -6 15 -12 37 -13 49 -1 12 -6 22 -12
22 -5 0 -4 4 4 9 7 5 11 15 9 22 -3 9 -6 8 -11 -5z"/>
<path d="M1760 700 l55 -7 -57 -1 c-32 -1 -58 -6 -58 -12 0 -6 70 -10 190 -10
120 0 190 4 190 10 0 6 -26 11 -57 11 -32 1 -67 3 -78 4 -11 2 -69 5 -130 8
-65 3 -88 2 -55 -3z"/>
<path d="M2896 661 c-23 -26 -17 -63 13 -77 30 -15 45 -10 59 20 8 19 6 28
-14 50 -30 31 -36 32 -58 7z m40 -28 c20 -26 17 -42 -6 -36 -11 3 -20 9 -20
13 0 5 -3 15 -6 24 -8 22 15 20 32 -1z"/>
<path d="M827 612 c-10 -10 -17 -23 -17 -29 0 -14 29 -37 37 -29 4 3 -2 13
-13 21 -11 8 -14 15 -6 15 6 0 12 7 12 15 0 21 9 19 31 -7 12 -15 18 -18 19
-9 0 13 -27 40 -41 41 -3 0 -13 -8 -22 -18z"/>
<path d="M1552 598 c-7 -7 -12 -40 -12 -80 0 -61 2 -68 20 -68 18 0 20 7 20
80 0 79 -5 91 -28 68z"/>
<path d="M1567 443 c-22 -4 -26 -7 -17 -18 6 -7 14 -52 17 -99 6 -84 6 -85
-19 -95 -14 -5 -100 -18 -192 -28 -187 -21 -166 -26 -179 47 -2 14 -8 34 -11
45 -7 18 -6 18 6 -1 10 -17 18 -20 36 -13 12 5 22 12 22 17 0 5 14 7 30 4 18
-3 30 0 30 7 0 6 11 11 25 11 14 0 25 5 25 10 0 6 -6 10 -13 10 -8 0 -22 9
-32 20 -10 11 -25 20 -33 20 -12 0 -10 -6 8 -25 19 -20 21 -28 12 -37 -10 -10
-17 -7 -35 14 -23 27 -65 53 -74 45 -2 -3 5 -8 16 -12 12 -3 19 -10 16 -15 -3
-5 3 -13 12 -19 17 -9 17 -11 1 -27 -15 -15 -17 -15 -33 9 -20 32 -114 56
-149 39 -18 -9 -13 -11 29 -12 28 -1 45 -4 38 -7 -8 -3 2 -18 26 -41 36 -35
38 -39 32 -82 l-6 -45 -95 0 c-52 1 -112 4 -133 8 -33 7 -37 11 -31 30 18 58
32 67 103 67 36 -1 84 -7 106 -15 54 -19 56 -12 3 10 -43 17 -209 34 -196 20
4 -4 -4 -17 -18 -29 -18 -15 -26 -35 -30 -74 -3 -28 -1 -52 4 -52 17 0 22 13
9 28 -10 14 -9 15 8 8 51 -21 232 -18 446 8 119 15 229 30 245 35 l29 7 3 117
c1 64 -1 116 -5 116 -4 -1 -21 -4 -36 -6z"/>
<path d="M1336 369 c27 -30 51 -41 51 -23 0 7 -6 14 -12 14 -7 0 -18 7 -25 15
-7 8 -17 15 -23 15 -5 0 -2 -9 9 -21z"/>
<path d="M2168 264 c-26 -8 -50 -19 -53 -24 -3 -5 16 -2 42 6 26 9 86 19 133
23 l85 8 -80 1 c-44 0 -101 -6 -127 -14z"/>
<path d="M545 234 l-40 -13 50 6 c56 6 62 8 43 15 -7 3 -31 -1 -53 -8z"/>
<path d="M809 245 c-4 -4 -238 -40 -419 -65 l-55 -7 66 -2 c69 -1 410 52 438
69 14 8 13 9 -5 10 -11 0 -23 -2 -25 -5z"/>
<path d="M2435 242 c13 -12 338 -64 430 -68 56 -3 63 -2 35 6 -19 5 -53 11
-75 13 -49 6 -316 45 -365 53 -23 3 -31 2 -25 -4z"/>
<path d="M2699 239 c-11 -7 -11 -9 3 -9 25 0 249 -30 276 -37 12 -3 22 -1 22
5 0 11 -51 20 -155 27 -38 3 -84 9 -101 14 -18 5 -38 5 -45 0z"/>
<path d="M478 225 c-2 -3 -33 -5 -69 -6 -35 -1 -80 -7 -99 -14 -19 -7 -41 -10
-47 -8 -7 3 -13 0 -13 -6 0 -6 3 -11 8 -11 27 1 234 39 239 44 4 3 2 6 -4 6
-5 0 -12 -2 -15 -5z"/>
<path d="M2555 170 c3 -5 13 -6 22 -3 11 5 14 3 9 -6 -5 -7 -17 -11 -27 -8
-11 3 -16 1 -13 -4 8 -14 116 -7 139 8 19 13 19 13 -3 13 -15 0 -21 -4 -16
-12 4 -6 -3 -4 -17 5 -25 18 -104 24 -94 7z"/>
<path d="M596 155 c-3 -8 -1 -15 4 -15 6 0 10 5 10 10 0 6 5 10 11 10 5 0 7
-5 4 -11 -5 -7 12 -9 53 -7 33 1 58 6 56 10 -2 3 -24 5 -49 4 -24 -2 -42 1
-39 5 3 5 -6 9 -19 9 -14 0 -27 -7 -31 -15z"/>
<path d="M1680 164 c0 -5 -19 -9 -42 -10 -51 -1 -331 -40 -408 -56 -91 -20
-276 -16 -337 7 -29 10 -53 25 -53 32 0 8 -12 13 -32 12 l-33 -1 30 -8 30 -7
-27 -7 c-15 -4 -32 -5 -37 -1 -6 3 -11 3 -11 -2 0 -14 190 -56 273 -61 43 -3
112 1 155 8 42 7 91 14 107 16 17 1 30 3 30 4 0 3 44 10 135 20 52 6 113 16
135 22 22 6 50 10 62 10 22 -2 40 14 29 25 -3 4 -6 2 -6 -3z"/>
<path d="M1798 142 l23 -18 -28 1 c-15 0 -34 4 -40 8 -9 6 -11 3 -6 -9 5 -14
15 -15 58 -10 39 4 67 1 111 -15 159 -55 195 -62 334 -63 145 -1 202 11 220
45 6 10 18 19 28 20 13 0 12 3 -5 11 -19 9 -26 7 -40 -11 -38 -47 -216 -65
-350 -36 -37 8 -115 30 -173 50 -58 19 -116 37 -130 40 l-25 4 23 -17z"/>
<path d="M270 146 c0 -17 28 -31 65 -32 22 -1 79 -3 127 -5 47 -2 85 -6 83 -9
-2 -4 17 -5 42 -4 26 2 54 -2 62 -9 12 -9 13 -9 7 1 -4 6 -3 12 3 12 5 0 12
-6 14 -12 4 -10 6 -10 6 0 1 7 15 12 38 12 20 0 33 3 29 7 -8 8 -102 14 -243
17 -46 0 -83 5 -83 10 0 5 -8 2 -17 -5 -14 -12 -16 -12 -8 0 6 11 3 13 -12 9
-12 -3 -27 -2 -34 3 -7 4 -21 3 -32 -2 -13 -7 -23 -7 -33 2 -8 6 -14 8 -14 5z"/>
<path d="M2934 134 c4 -12 2 -12 -14 -4 -11 6 -24 9 -28 6 -11 -6 -219 -19
-304 -18 -38 0 -68 -3 -68 -6 0 -4 10 -8 23 -8 63 -5 167 -4 207 0 41 5 191
15 233 17 34 1 17 25 -19 26 -26 0 -34 -3 -30 -13z"/>
<path d="M160 87 c3 -3 23 -8 45 -11 23 -4 50 -8 60 -10 11 -1 31 0 45 5 20 6
17 7 -20 9 -25 1 -65 4 -90 6 -25 3 -43 3 -40 1z"/>
</g>
</svg>
